<svg xmlns="http://www.w3.org/2000/svg" width="820" height="560" viewBox="0 0 820 560"><rect width="100%" height="100%" fill="#fbfbf8"/><text x="32" y="42" font-family="Arial" font-size="22" font-weight="700" fill="#202124">Correlation Heatmap</text><rect x="170" y="88" width="43" height="43" fill="#b84d3a" opacity="0.94" stroke="#fff"/><rect x="213" y="88" width="43" height="43" fill="#356d8c" opacity="0.14" stroke="#fff"/><rect x="256" y="88" width="43" height="43" fill="#356d8c" opacity="0.39" stroke="#fff"/><rect x="299" y="88" width="43" height="43" fill="#356d8c" opacity="0.26" stroke="#fff"/><rect x="342" y="88" width="43" height="43" fill="#b84d3a" opacity="0.17" stroke="#fff"/><rect x="385" y="88" width="43" height="43" fill="#b84d3a" opacity="0.12" stroke="#fff"/><rect x="428" y="88" width="43" height="43" fill="#b84d3a" opacity="0.16" stroke="#fff"/><rect x="471" y="88" width="43" height="43" fill="#356d8c" opacity="0.14" stroke="#fff"/><rect x="514" y="88" width="43" height="43" fill="#b84d3a" opacity="0.12" stroke="#fff"/><rect x="557" y="88" width="43" height="43" fill="#b84d3a" opacity="0.21" stroke="#fff"/><text x="164" y="114.7" font-family="Arial" font-size="10" text-anchor="end">TARGET</text><rect x="170" y="131" width="43" height="43" fill="#356d8c" opacity="0.14" stroke="#fff"/><rect x="213" y="131" width="43" height="43" fill="#b84d3a" opacity="0.94" stroke="#fff"/><rect x="256" y="131" width="43" height="43" fill="#b84d3a" opacity="0.13" stroke="#fff"/><rect x="299" y="131" width="43" height="43" fill="#b84d3a" opacity="0.14" stroke="#fff"/><rect x="342" y="131" width="43" height="43" fill="#356d8c" opacity="0.12" stroke="#fff"/><rect x="385" y="131" width="43" height="43" fill="#b84d3a" opacity="0.13" stroke="#fff"/><rect x="428" y="131" width="43" height="43" fill="#356d8c" opacity="0.12" stroke="#fff"/><rect x="471" y="131" width="43" height="43" fill="#356d8c" opacity="0.14" stroke="#fff"/><rect x="514" y="131" width="43" height="43" fill="#356d8c" opacity="0.14" stroke="#fff"/><rect x="557" y="131" width="43" height="43" fill="#356d8c" opacity="0.13" stroke="#fff"/><text x="164" y="157.7" font-family="Arial" font-size="10" text-anchor="end">EXT_SOURCE_1</text><rect x="170" y="174" width="43" height="43" fill="#356d8c" opacity="0.39" stroke="#fff"/><rect x="213" y="174" width="43" height="43" fill="#b84d3a" opacity="0.13" stroke="#fff"/><rect x="256" y="174" width="43" height="43" fill="#b84d3a" opacity="0.94" stroke="#fff"/><rect x="299" y="174" width="43" height="43" fill="#356d8c" opacity="0.14" stroke="#fff"/><rect x="342" y="174" width="43" height="43" fill="#b84d3a" opacity="0.13" stroke="#fff"/><rect x="385" y="174" width="43" height="43" fill="#b84d3a" opacity="0.13" stroke="#fff"/><rect x="428" y="174" width="43" height="43" fill="#b84d3a" opacity="0.12" stroke="#fff"/><rect x="471" y="174" width="43" height="43" fill="#b84d3a" opacity="0.14" stroke="#fff"/><rect x="514" y="174" width="43" height="43" fill="#b84d3a" opacity="0.12" stroke="#fff"/><rect x="557" y="174" width="43" height="43" fill="#b84d3a" opacity="0.13" stroke="#fff"/><text x="164" y="200.7" font-family="Arial" font-size="10" text-anchor="end">EXT_SOURCE_2</text><rect x="170" y="217" width="43" height="43" fill="#356d8c" opacity="0.26" stroke="#fff"/><rect x="213" y="217" width="43" height="43" fill="#b84d3a" opacity="0.14" stroke="#fff"/><rect x="256" y="217" width="43" height="43" fill="#356d8c" opacity="0.14" stroke="#fff"/><rect x="299" y="217" width="43" height="43" fill="#b84d3a" opacity="0.94" stroke="#fff"/><rect x="342" y="217" width="43" height="43" fill="#356d8c" opacity="0.12" stroke="#fff"/><rect x="385" y="217" width="43" height="43" fill="#356d8c" opacity="0.13" stroke="#fff"/><rect x="428" y="217" width="43" height="43" fill="#b84d3a" opacity="0.12" stroke="#fff"/><rect x="471" y="217" width="43" height="43" fill="#b84d3a" opacity="0.12" stroke="#fff"/><rect x="514" y="217" width="43" height="43" fill="#356d8c" opacity="0.12" stroke="#fff"/><rect x="557" y="217" width="43" height="43" fill="#b84d3a" opacity="0.13" stroke="#fff"/><text x="164" y="243.7" font-family="Arial" font-size="10" text-anchor="end">EXT_SOURCE_3</text><rect x="170" y="260" width="43" height="43" fill="#b84d3a" opacity="0.17" stroke="#fff"/><rect x="213" y="260" width="43" height="43" fill="#356d8c" opacity="0.12" stroke="#fff"/><rect x="256" y="260" width="43" height="43" fill="#b84d3a" opacity="0.13" stroke="#fff"/><rect x="299" y="260" width="43" height="43" fill="#356d8c" opacity="0.12" stroke="#fff"/><rect x="342" y="260" width="43" height="43" fill="#b84d3a" opacity="0.94" stroke="#fff"/><rect x="385" y="260" width="43" height="43" fill="#b84d3a" opacity="0.81" stroke="#fff"/><rect x="428" y="260" width="43" height="43" fill="#b84d3a" opacity="0.86" stroke="#fff"/><rect x="471" y="260" width="43" height="43" fill="#b84d3a" opacity="0.12" stroke="#fff"/><rect x="514" y="260" width="43" height="43" fill="#b84d3a" opacity="0.12" stroke="#fff"/><rect x="557" y="260" width="43" height="43" fill="#b84d3a" opacity="0.54" stroke="#fff"/><text x="164" y="286.7" font-family="Arial" font-size="10" text-anchor="end">AMT_CREDIT</text><rect x="170" y="303" width="43" height="43" fill="#b84d3a" opacity="0.12" stroke="#fff"/><rect x="213" y="303" width="43" height="43" fill="#b84d3a" opacity="0.13" stroke="#fff"/><rect x="256" y="303" width="43" height="43" fill="#b84d3a" opacity="0.13" stroke="#fff"/><rect x="299" y="303" width="43" height="43" fill="#356d8c" opacity="0.13" stroke="#fff"/><rect x="342" y="303" width="43" height="43" fill="#b84d3a" opacity="0.81" stroke="#fff"/><rect x="385" y="303" width="43" height="43" fill="#b84d3a" opacity="0.94" stroke="#fff"/><rect x="428" y="303" width="43" height="43" fill="#b84d3a" opacity="0.74" stroke="#fff"/><rect x="471" y="303" width="43" height="43" fill="#356d8c" opacity="0.12" stroke="#fff"/><rect x="514" y="303" width="43" height="43" fill="#b84d3a" opacity="0.13" stroke="#fff"/><rect x="557" y="303" width="43" height="43" fill="#b84d3a" opacity="0.13" stroke="#fff"/><text x="164" y="329.7" font-family="Arial" font-size="10" text-anchor="end">AMT_INCOME_TOTAL</text><rect x="170" y="346" width="43" height="43" fill="#b84d3a" opacity="0.16" stroke="#fff"/><rect x="213" y="346" width="43" height="43" fill="#356d8c" opacity="0.12" stroke="#fff"/><rect x="256" y="346" width="43" height="43" fill="#b84d3a" opacity="0.12" stroke="#fff"/><rect x="299" y="346" width="43" height="43" fill="#b84d3a" opacity="0.12" stroke="#fff"/><rect x="342" y="346" width="43" height="43" fill="#b84d3a" opacity="0.86" stroke="#fff"/><rect x="385" y="346" width="43" height="43" fill="#b84d3a" opacity="0.74" stroke="#fff"/><rect x="428" y="346" width="43" height="43" fill="#b84d3a" opacity="0.94" stroke="#fff"/><rect x="471" y="346" width="43" height="43" fill="#b84d3a" opacity="0.12" stroke="#fff"/><rect x="514" y="346" width="43" height="43" fill="#b84d3a" opacity="0.12" stroke="#fff"/><rect x="557" y="346" width="43" height="43" fill="#b84d3a" opacity="0.49" stroke="#fff"/><text x="164" y="372.7" font-family="Arial" font-size="10" text-anchor="end">AMT_ANNUITY</text><rect x="170" y="389" width="43" height="43" fill="#356d8c" opacity="0.14" stroke="#fff"/><rect x="213" y="389" width="43" height="43" fill="#356d8c" opacity="0.14" stroke="#fff"/><rect x="256" y="389" width="43" height="43" fill="#b84d3a" opacity="0.14" stroke="#fff"/><rect x="299" y="389" width="43" height="43" fill="#b84d3a" opacity="0.12" stroke="#fff"/><rect x="342" y="389" width="43" height="43" fill="#b84d3a" opacity="0.12" stroke="#fff"/><rect x="385" y="389" width="43" height="43" fill="#356d8c" opacity="0.12" stroke="#fff"/><rect x="428" y="389" width="43" height="43" fill="#b84d3a" opacity="0.12" stroke="#fff"/><rect x="471" y="389" width="43" height="43" fill="#b84d3a" opacity="0.94" stroke="#fff"/><rect x="514" y="389" width="43" height="43" fill="#356d8c" opacity="0.13" stroke="#fff"/><rect x="557" y="389" width="43" height="43" fill="#b84d3a" opacity="0.13" stroke="#fff"/><text x="164" y="415.7" font-family="Arial" font-size="10" text-anchor="end">DAYS_BIRTH</text><rect x="170" y="432" width="43" height="43" fill="#b84d3a" opacity="0.12" stroke="#fff"/><rect x="213" y="432" width="43" height="43" fill="#356d8c" opacity="0.14" stroke="#fff"/><rect x="256" y="432" width="43" height="43" fill="#b84d3a" opacity="0.12" stroke="#fff"/><rect x="299" y="432" width="43" height="43" fill="#356d8c" opacity="0.12" stroke="#fff"/><rect x="342" y="432" width="43" height="43" fill="#b84d3a" opacity="0.12" stroke="#fff"/><rect x="385" y="432" width="43" height="43" fill="#b84d3a" opacity="0.13" stroke="#fff"/><rect x="428" y="432" width="43" height="43" fill="#b84d3a" opacity="0.12" stroke="#fff"/><rect x="471" y="432" width="43" height="43" fill="#356d8c" opacity="0.13" stroke="#fff"/><rect x="514" y="432" width="43" height="43" fill="#b84d3a" opacity="0.94" stroke="#fff"/><rect x="557" y="432" width="43" height="43" fill="#356d8c" opacity="0.12" stroke="#fff"/><text x="164" y="458.7" font-family="Arial" font-size="10" text-anchor="end">DAYS_EMPLOYED</text><rect x="170" y="475" width="43" height="43" fill="#b84d3a" opacity="0.21" stroke="#fff"/><rect x="213" y="475" width="43" height="43" fill="#356d8c" opacity="0.13" stroke="#fff"/><rect x="256" y="475" width="43" height="43" fill="#b84d3a" opacity="0.13" stroke="#fff"/><rect x="299" y="475" width="43" height="43" fill="#b84d3a" opacity="0.13" stroke="#fff"/><rect x="342" y="475" width="43" height="43" fill="#b84d3a" opacity="0.54" stroke="#fff"/><rect x="385" y="475" width="43" height="43" fill="#b84d3a" opacity="0.13" stroke="#fff"/><rect x="428" y="475" width="43" height="43" fill="#b84d3a" opacity="0.49" stroke="#fff"/><rect x="471" y="475" width="43" height="43" fill="#b84d3a" opacity="0.13" stroke="#fff"/><rect x="514" y="475" width="43" height="43" fill="#356d8c" opacity="0.12" stroke="#fff"/><rect x="557" y="475" width="43" height="43" fill="#b84d3a" opacity="0.94" stroke="#fff"/><text x="164" y="501.7" font-family="Arial" font-size="10" text-anchor="end">CREDIT_INCOME_RATI</text><text x="191.5" y="78" font-family="Arial" font-size="10" transform="rotate(-45 191.5 78)" text-anchor="start">TARGET</text><text x="234.5" y="78" font-family="Arial" font-size="10" transform="rotate(-45 234.5 78)" text-anchor="start">EXT_SOURCE_1</text><text x="277.5" y="78" font-family="Arial" font-size="10" transform="rotate(-45 277.5 78)" text-anchor="start">EXT_SOURCE_2</text><text x="320.5" y="78" font-family="Arial" font-size="10" transform="rotate(-45 320.5 78)" text-anchor="start">EXT_SOURCE_3</text><text x="363.5" y="78" font-family="Arial" font-size="10" transform="rotate(-45 363.5 78)" text-anchor="start">AMT_CREDIT</text><text x="406.5" y="78" font-family="Arial" font-size="10" transform="rotate(-45 406.5 78)" text-anchor="start">AMT_INCOME_TOTAL</text><text x="449.5" y="78" font-family="Arial" font-size="10" transform="rotate(-45 449.5 78)" text-anchor="start">AMT_ANNUITY</text><text x="492.5" y="78" font-family="Arial" font-size="10" transform="rotate(-45 492.5 78)" text-anchor="start">DAYS_BIRTH</text><text x="535.5" y="78" font-family="Arial" font-size="10" transform="rotate(-45 535.5 78)" text-anchor="start">DAYS_EMPLOYED</text><text x="578.5" y="78" font-family="Arial" font-size="10" transform="rotate(-45 578.5 78)" text-anchor="start">CREDIT_INCOME_RATI</text></svg>