<svg xmlns="http://www.w3.org/2000/svg" width="760" height="460" viewBox="0 0 760 460"><rect width="100%" height="100%" fill="#fbfbf8"/><text x="32" y="42" font-family="Arial" font-size="22" font-weight="700" fill="#202124">Feature Importance</text><line x1="90" y1="380" x2="680" y2="380" stroke="#444"/><rect x="99.1" y="80.0" width="30.5" height="300.0" fill="#356d8c"/><text x="114.4" y="404" font-family="Arial" font-size="13" text-anchor="middle" fill="#333">EXT_SOURCE_3</text><text x="114.4" y="72.0" font-family="Arial" font-size="13" text-anchor="middle" fill="#333">0.0672</text><rect x="148.3" y="152.7" width="30.5" height="227.3" fill="#356d8c"/><text x="163.6" y="404" font-family="Arial" font-size="13" text-anchor="middle" fill="#333">EXT_SOURCE_2</text><text x="163.6" y="144.7" font-family="Arial" font-size="13" text-anchor="middle" fill="#333">0.0509</text><rect x="197.5" y="321.8" width="30.5" height="58.2" fill="#356d8c"/><text x="212.7" y="404" font-family="Arial" font-size="13" text-anchor="middle" fill="#333">AMT_GOODS_PRICE</text><text x="212.7" y="313.8" font-family="Arial" font-size="13" text-anchor="middle" fill="#333">0.013</text><rect x="246.6" y="342.4" width="30.5" height="37.6" fill="#356d8c"/><text x="261.9" y="404" font-family="Arial" font-size="13" text-anchor="middle" fill="#333">EXT_SOURCE_1</text><text x="261.9" y="334.4" font-family="Arial" font-size="13" text-anchor="middle" fill="#333">0.00842</text><rect x="295.8" y="360.7" width="30.5" height="19.3" fill="#356d8c"/><text x="311.1" y="404" font-family="Arial" font-size="13" text-anchor="middle" fill="#333">DAYS_EMPLOYED</text><text x="311.1" y="352.7" font-family="Arial" font-size="13" text-anchor="middle" fill="#333">0.00433</text><rect x="345.0" y="364.0" width="30.5" height="16.0" fill="#356d8c"/><text x="360.2" y="404" font-family="Arial" font-size="13" text-anchor="middle" fill="#333">FLAG_OWN_CAR=N</text><text x="360.2" y="356.0" font-family="Arial" font-size="13" text-anchor="middle" fill="#333">0.00358</text><rect x="394.1" y="368.7" width="30.5" height="11.3" fill="#356d8c"/><text x="409.4" y="404" font-family="Arial" font-size="13" text-anchor="middle" fill="#333">FLAG_OWN_CAR=Y</text><text x="409.4" y="360.7" font-family="Arial" font-size="13" text-anchor="middle" fill="#333">0.00252</text><rect x="443.3" y="369.2" width="30.5" height="10.8" fill="#356d8c"/><text x="458.6" y="404" font-family="Arial" font-size="13" text-anchor="middle" fill="#333">NAME_EDUCATION_TYPE=Secondary / secondary special</text><text x="458.6" y="361.2" font-family="Arial" font-size="13" text-anchor="middle" fill="#333">0.00242</text><rect x="492.5" y="371.2" width="30.5" height="8.8" fill="#356d8c"/><text x="507.7" y="404" font-family="Arial" font-size="13" text-anchor="middle" fill="#333">FLAG_DOCUMENT_14</text><text x="507.7" y="363.2" font-family="Arial" font-size="13" text-anchor="middle" fill="#333">0.00196</text><rect x="541.6" y="371.8" width="30.5" height="8.2" fill="#356d8c"/><text x="556.9" y="404" font-family="Arial" font-size="13" text-anchor="middle" fill="#333">AMT_CREDIT</text><text x="556.9" y="363.8" font-family="Arial" font-size="13" text-anchor="middle" fill="#333">0.00183</text><rect x="590.8" y="372.0" width="30.5" height="8.0" fill="#356d8c"/><text x="606.1" y="404" font-family="Arial" font-size="13" text-anchor="middle" fill="#333">CODE_GENDER=M</text><text x="606.1" y="364.0" font-family="Arial" font-size="13" text-anchor="middle" fill="#333">0.0018</text><rect x="640.0" y="373.0" width="30.5" height="7.0" fill="#356d8c"/><text x="655.2" y="404" font-family="Arial" font-size="13" text-anchor="middle" fill="#333">DEF_30_CNT_SOCIAL_CIRCLE</text><text x="655.2" y="365.0" font-family="Arial" font-size="13" text-anchor="middle" fill="#333">0.00157</text></svg>