<svg xmlns="http://www.w3.org/2000/svg" width="760" height="460" viewBox="0 0 760 460"><rect width="100%" height="100%" fill="#fbfbf8"/><text x="32" y="42" font-family="Arial" font-size="22" font-weight="700" fill="#202124">Feature Importance</text><line x1="90" y1="380" x2="680" y2="380" stroke="#444"/><rect x="99.1" y="80.0" width="30.5" height="300.0" fill="#356d8c"/><text x="114.4" y="404" font-family="Arial" font-size="13" text-anchor="middle" fill="#333">EXT_SOURCE_MEAN</text><text x="114.4" y="72.0" font-family="Arial" font-size="13" text-anchor="middle" fill="#333">0.0706</text><rect x="148.3" y="354.6" width="30.5" height="25.4" fill="#356d8c"/><text x="163.6" y="404" font-family="Arial" font-size="13" text-anchor="middle" fill="#333">INSTAL_INSTAL_IS_LATE_MEAN</text><text x="163.6" y="346.6" font-family="Arial" font-size="13" text-anchor="middle" fill="#333">0.00599</text><rect x="197.5" y="360.5" width="30.5" height="19.5" fill="#356d8c"/><text x="212.7" y="404" font-family="Arial" font-size="13" text-anchor="middle" fill="#333">BUREAU_BUREAU_DEBT_CREDIT_RATIO_RAW_MAX</text><text x="212.7" y="352.5" font-family="Arial" font-size="13" text-anchor="middle" fill="#333">0.00459</text><rect x="246.6" y="361.4" width="30.5" height="18.6" fill="#356d8c"/><text x="261.9" y="404" font-family="Arial" font-size="13" text-anchor="middle" fill="#333">CREDIT_TERM</text><text x="261.9" y="353.4" font-family="Arial" font-size="13" text-anchor="middle" fill="#333">0.00438</text><rect x="295.8" y="366.6" width="30.5" height="13.4" fill="#356d8c"/><text x="311.1" y="404" font-family="Arial" font-size="13" text-anchor="middle" fill="#333">AMT_ANNUITY</text><text x="311.1" y="358.6" font-family="Arial" font-size="13" text-anchor="middle" fill="#333">0.00315</text><rect x="345.0" y="367.5" width="30.5" height="12.5" fill="#356d8c"/><text x="360.2" y="404" font-family="Arial" font-size="13" text-anchor="middle" fill="#333">INSTAL_AMT_PAYMENT_SUM</text><text x="360.2" y="359.5" font-family="Arial" font-size="13" text-anchor="middle" fill="#333">0.00295</text><rect x="394.1" y="369.8" width="30.5" height="10.2" fill="#356d8c"/><text x="409.4" y="404" font-family="Arial" font-size="13" text-anchor="middle" fill="#333">INSTAL_AMT_INSTALMENT_MIN</text><text x="409.4" y="361.8" font-family="Arial" font-size="13" text-anchor="middle" fill="#333">0.0024</text><rect x="443.3" y="369.8" width="30.5" height="10.2" fill="#356d8c"/><text x="458.6" y="404" font-family="Arial" font-size="13" text-anchor="middle" fill="#333">DAYS_BIRTH</text><text x="458.6" y="361.8" font-family="Arial" font-size="13" text-anchor="middle" fill="#333">0.0024</text><rect x="492.5" y="370.5" width="30.5" height="9.5" fill="#356d8c"/><text x="507.7" y="404" font-family="Arial" font-size="13" text-anchor="middle" fill="#333">NAME_EDUCATION_TYPE=Higher education</text><text x="507.7" y="362.5" font-family="Arial" font-size="13" text-anchor="middle" fill="#333">0.00224</text><rect x="541.6" y="371.9" width="30.5" height="8.1" fill="#356d8c"/><text x="556.9" y="404" font-family="Arial" font-size="13" text-anchor="middle" fill="#333">CREDIT_GOODS_RATIO</text><text x="556.9" y="363.9" font-family="Arial" font-size="13" text-anchor="middle" fill="#333">0.0019</text><rect x="590.8" y="373.7" width="30.5" height="6.3" fill="#356d8c"/><text x="606.1" y="404" font-family="Arial" font-size="13" text-anchor="middle" fill="#333">DEF_30_CNT_SOCIAL_CIRCLE</text><text x="606.1" y="365.7" font-family="Arial" font-size="13" text-anchor="middle" fill="#333">0.00149</text><rect x="640.0" y="373.7" width="30.5" height="6.3" fill="#356d8c"/><text x="655.2" y="404" font-family="Arial" font-size="13" text-anchor="middle" fill="#333">EXT_SOURCE_PRODUCT</text><text x="655.2" y="365.7" font-family="Arial" font-size="13" text-anchor="middle" fill="#333">0.00147</text></svg>