<svg xmlns="http://www.w3.org/2000/svg" width="760" height="460" viewBox="0 0 760 460"><rect width="100%" height="100%" fill="#fbfbf8"/><text x="32" y="42" font-family="Arial" font-size="22" font-weight="700" fill="#202124">Feature Importance</text><line x1="90" y1="380" x2="680" y2="380" stroke="#444"/><rect x="99.1" y="80.0" width="30.5" height="300.0" fill="#356d8c"/><text x="114.4" y="404" font-family="Arial" font-size="13" text-anchor="middle" fill="#333">EXT_SOURCE_MEAN</text><text x="114.4" y="72.0" font-family="Arial" font-size="13" text-anchor="middle" fill="#333">0.0802</text><rect x="148.3" y="340.2" width="30.5" height="39.8" fill="#356d8c"/><text x="163.6" y="404" font-family="Arial" font-size="13" text-anchor="middle" fill="#333">CREDIT_TERM</text><text x="163.6" y="332.2" font-family="Arial" font-size="13" text-anchor="middle" fill="#333">0.0106</text><rect x="197.5" y="355.7" width="30.5" height="24.3" fill="#356d8c"/><text x="212.7" y="404" font-family="Arial" font-size="13" text-anchor="middle" fill="#333">CREDIT_GOODS_RATIO</text><text x="212.7" y="347.7" font-family="Arial" font-size="13" text-anchor="middle" fill="#333">0.00651</text><rect x="246.6" y="362.2" width="30.5" height="17.8" fill="#356d8c"/><text x="261.9" y="404" font-family="Arial" font-size="13" text-anchor="middle" fill="#333">EXT_SOURCE_3</text><text x="261.9" y="354.2" font-family="Arial" font-size="13" text-anchor="middle" fill="#333">0.00476</text><rect x="295.8" y="369.9" width="30.5" height="10.1" fill="#356d8c"/><text x="311.1" y="404" font-family="Arial" font-size="13" text-anchor="middle" fill="#333">EXT_SOURCE_1</text><text x="311.1" y="361.9" font-family="Arial" font-size="13" text-anchor="middle" fill="#333">0.00269</text><rect x="345.0" y="371.6" width="30.5" height="8.4" fill="#356d8c"/><text x="360.2" y="404" font-family="Arial" font-size="13" text-anchor="middle" fill="#333">AMT_GOODS_PRICE</text><text x="360.2" y="363.6" font-family="Arial" font-size="13" text-anchor="middle" fill="#333">0.00224</text><rect x="394.1" y="371.9" width="30.5" height="8.1" fill="#356d8c"/><text x="409.4" y="404" font-family="Arial" font-size="13" text-anchor="middle" fill="#333">CODE_GENDER=M</text><text x="409.4" y="363.9" font-family="Arial" font-size="13" text-anchor="middle" fill="#333">0.00215</text><rect x="443.3" y="372.7" width="30.5" height="7.3" fill="#356d8c"/><text x="458.6" y="404" font-family="Arial" font-size="13" text-anchor="middle" fill="#333">DEF_30_CNT_SOCIAL_CIRCLE</text><text x="458.6" y="364.7" font-family="Arial" font-size="13" text-anchor="middle" fill="#333">0.00194</text><rect x="492.5" y="373.3" width="30.5" height="6.7" fill="#356d8c"/><text x="507.7" y="404" font-family="Arial" font-size="13" text-anchor="middle" fill="#333">DAYS_BIRTH</text><text x="507.7" y="365.3" font-family="Arial" font-size="13" text-anchor="middle" fill="#333">0.00178</text><rect x="541.6" y="373.8" width="30.5" height="6.2" fill="#356d8c"/><text x="556.9" y="404" font-family="Arial" font-size="13" text-anchor="middle" fill="#333">FLAG_OWN_CAR=N</text><text x="556.9" y="365.8" font-family="Arial" font-size="13" text-anchor="middle" fill="#333">0.00166</text><rect x="590.8" y="374.0" width="30.5" height="6.0" fill="#356d8c"/><text x="606.1" y="404" font-family="Arial" font-size="13" text-anchor="middle" fill="#333">AMT_ANNUITY</text><text x="606.1" y="366.0" font-family="Arial" font-size="13" text-anchor="middle" fill="#333">0.0016</text><rect x="640.0" y="374.2" width="30.5" height="5.8" fill="#356d8c"/><text x="655.2" y="404" font-family="Arial" font-size="13" text-anchor="middle" fill="#333">NAME_EDUCATION_TYPE=Higher education</text><text x="655.2" y="366.2" font-family="Arial" font-size="13" text-anchor="middle" fill="#333">0.00155</text></svg>