<svg xmlns="http://www.w3.org/2000/svg" width="760" height="460" viewBox="0 0 760 460"><rect width="100%" height="100%" fill="#fbfbf8"/><text x="32" y="42" font-family="Arial" font-size="22" font-weight="700" fill="#202124">Feature Importance</text><line x1="90" y1="380" x2="680" y2="380" stroke="#444"/><rect x="99.1" y="80.0" width="30.5" height="300.0" fill="#356d8c"/><text x="114.4" y="404" font-family="Arial" font-size="13" text-anchor="middle" fill="#333">EXT_SOURCE_2</text><text x="114.4" y="72.0" font-family="Arial" font-size="13" text-anchor="middle" fill="#333">0.25</text><rect x="148.3" y="302.9" width="30.5" height="77.1" fill="#356d8c"/><text x="163.6" y="404" font-family="Arial" font-size="13" text-anchor="middle" fill="#333">EXT_SOURCE_3</text><text x="163.6" y="294.9" font-family="Arial" font-size="13" text-anchor="middle" fill="#333">0.0643</text><rect x="197.5" y="346.3" width="30.5" height="33.7" fill="#356d8c"/><text x="212.7" y="404" font-family="Arial" font-size="13" text-anchor="middle" fill="#333">CREDIT_INCOME_RATIO</text><text x="212.7" y="338.3" font-family="Arial" font-size="13" text-anchor="middle" fill="#333">0.0281</text><rect x="246.6" y="373.0" width="30.5" height="7.0" fill="#356d8c"/><text x="261.9" y="404" font-family="Arial" font-size="13" text-anchor="middle" fill="#333">AMT_CREDIT</text><text x="261.9" y="365.0" font-family="Arial" font-size="13" text-anchor="middle" fill="#333">0.00583</text><rect x="295.8" y="377.7" width="30.5" height="2.3" fill="#356d8c"/><text x="311.1" y="404" font-family="Arial" font-size="13" text-anchor="middle" fill="#333">AMT_ANNUITY</text><text x="311.1" y="369.7" font-family="Arial" font-size="13" text-anchor="middle" fill="#333">0.00189</text><rect x="345.0" y="378.2" width="30.5" height="1.8" fill="#356d8c"/><text x="360.2" y="404" font-family="Arial" font-size="13" text-anchor="middle" fill="#333">ANNUITY_INCOME_RATIO</text><text x="360.2" y="370.2" font-family="Arial" font-size="13" text-anchor="middle" fill="#333">0.00151</text><rect x="394.1" y="379.5" width="30.5" height="0.5" fill="#356d8c"/><text x="409.4" y="404" font-family="Arial" font-size="13" text-anchor="middle" fill="#333">NAME_FAMILY_STATUS=Married</text><text x="409.4" y="371.5" font-family="Arial" font-size="13" text-anchor="middle" fill="#333">0.000426</text><rect x="443.3" y="379.5" width="30.5" height="0.5" fill="#356d8c"/><text x="458.6" y="404" font-family="Arial" font-size="13" text-anchor="middle" fill="#333">NAME_EDUCATION_TYPE=Incomplete higher</text><text x="458.6" y="371.5" font-family="Arial" font-size="13" text-anchor="middle" fill="#333">0.000376</text><rect x="492.5" y="379.6" width="30.5" height="0.4" fill="#356d8c"/><text x="507.7" y="404" font-family="Arial" font-size="13" text-anchor="middle" fill="#333">NAME_EDUCATION_TYPE=Higher</text><text x="507.7" y="371.6" font-family="Arial" font-size="13" text-anchor="middle" fill="#333">0.000337</text><rect x="541.6" y="379.6" width="30.5" height="0.4" fill="#356d8c"/><text x="556.9" y="404" font-family="Arial" font-size="13" text-anchor="middle" fill="#333">NAME_FAMILY_STATUS=Civil marriage</text><text x="556.9" y="371.6" font-family="Arial" font-size="13" text-anchor="middle" fill="#333">0.000317</text><rect x="590.8" y="379.8" width="30.5" height="0.2" fill="#356d8c"/><text x="606.1" y="404" font-family="Arial" font-size="13" text-anchor="middle" fill="#333">NAME_EDUCATION_TYPE=Secondary</text><text x="606.1" y="371.8" font-family="Arial" font-size="13" text-anchor="middle" fill="#333">0.000178</text><rect x="640.0" y="379.8" width="30.5" height="0.2" fill="#356d8c"/><text x="655.2" y="404" font-family="Arial" font-size="13" text-anchor="middle" fill="#333">CNT_CHILDREN</text><text x="655.2" y="371.8" font-family="Arial" font-size="13" text-anchor="middle" fill="#333">0.000139</text></svg>