<svg xmlns="http://www.w3.org/2000/svg" width="760" height="460" viewBox="0 0 760 460"><rect width="100%" height="100%" fill="#fbfbf8"/><text x="32" y="42" font-family="Arial" font-size="22" font-weight="700" fill="#202124">Precision-Recall Curve</text><rect x="80" y="78" width="610" height="300" fill="#fff" stroke="#d7d7d7"/><polyline points="80.0,78.0 117.8,145.7 155.6,162.7 188.0,179.6 204.2,213.4 236.5,213.4 263.5,219.1 295.9,218.3 322.9,221.9 344.5,228.5 366.1,233.8 376.9,244.2 387.7,252.9 398.5,260.3 409.3,266.6 425.5,269.9 436.3,274.8 441.7,281.2 447.1,286.8 452.5,291.9 457.9,296.4 463.3,300.5 474.1,302.7 490.3,303.2 501.1,305.1 511.9,311.1 511.9,306.9 517.3,313.8 522.7,316.2 533.5,317.4 544.2,318.4 549.6,320.5 549.6,323.5 560.4,324.3 571.2,325.0 582.0,325.7 587.4,327.2 587.4,329.7 592.8,333.3 592.8,331.1 598.2,334.5 598.2,336.5 609.0,336.8 614.4,337.9 619.8,338.9 625.2,339.9 625.2,341.5 636.0,341.7 641.4,342.5 641.4,344.0 646.8,344.8 646.8,347.6 646.8,348.9 646.8,350.1 646.8,351.3 646.8,352.5 646.8,353.6 646.8,354.7 646.8,355.8 646.8,346.2 657.6,357.6 657.6,355.7 657.6,356.7 668.4,357.5 668.4,358.4 673.8,364.4 673.8,365.8 673.8,365.1 673.8,363.7 673.8,359.7 673.8,362.1 673.8,361.3 673.8,360.5 673.8,358.8 673.8,362.9 679.2,370.9 679.2,373.0 679.2,372.5 679.2,372.0 679.2,371.5 679.2,370.4 679.2,366.7 679.2,369.2 679.2,368.6 679.2,368.0 679.2,367.3 679.2,366.0 679.2,369.8 684.6,373.1 684.6,373.6 684.6,374.1 684.6,374.6 690.0,377.6 690.0,377.2 690.0,376.8 690.0,374.6 690.0,376.0 690.0,375.5 690.0,375.1 690.0,376.4 690.0,378.0" fill="none" stroke="#b84d3a" stroke-width="3"/><text x="385.0" y="426" font-family="Arial" font-size="14" text-anchor="middle">Recall</text><text x="24" y="228.0" font-family="Arial" font-size="14" transform="rotate(-90 24 228.0)" text-anchor="middle">Precision</text></svg>