<svg xmlns="http://www.w3.org/2000/svg" width="760" height="460" viewBox="0 0 760 460"><rect width="100%" height="100%" fill="#fbfbf8"/><text x="32" y="42" font-family="Arial" font-size="22" font-weight="700" fill="#202124">Precision-Recall Curve</text><rect x="80" y="78" width="610" height="300" fill="#fff" stroke="#d7d7d7"/><polyline points="80.0,78.0 115.0,251.9 140.7,272.2 163.8,282.7 182.7,292.6 202.3,297.9 221.1,302.0 236.9,306.8 251.3,311.2 267.0,314.0 282.0,316.5 295.6,319.1 309.2,321.3 321.2,323.7 333.2,325.7 346.9,327.0 358.3,328.7 369.4,330.4 378.8,332.2 386.8,334.2 397.1,335.5 406.1,336.9 415.2,338.1 423.5,339.5 431.9,340.7 440.7,341.7 446.1,343.2 454.9,344.0 461.0,345.3 468.6,346.2 475.3,347.1 482.7,348.0 489.5,348.8 495.7,349.7 502.9,350.4 508.3,351.2 514.6,352.0 520.4,352.7 524.5,353.6 529.2,354.4 534.0,355.1 539.1,355.8 543.7,356.5 548.3,357.1 554.2,357.6 557.7,358.3 562.6,358.8 567.6,359.4 573.7,359.7 578.2,360.3 583.2,360.7 586.1,361.3 590.2,361.8 594.9,362.2 600.0,362.6 603.3,363.1 606.9,363.6 610.0,364.1 615.0,364.4 618.0,364.8 620.9,365.3 624.5,365.7 627.6,366.1 630.1,366.5 633.0,366.9 635.4,367.3 637.7,367.7 640.2,368.1 642.0,368.6 644.6,368.9 647.4,369.3 649.2,369.6 650.8,370.0 653.1,370.4 655.9,370.7 657.8,371.0 659.9,371.3 663.0,371.6 665.3,371.9 667.3,372.2 668.6,372.5 670.5,372.8 672.6,373.1 673.4,373.4 674.8,373.7 675.7,374.0 676.7,374.3 678.3,374.6 679.8,374.9 680.7,375.2 682.6,375.4 683.9,375.7 685.4,375.9 685.6,376.2 686.8,376.4 687.6,376.7 688.3,377.0 688.9,377.2 689.4,377.5 689.8,377.7 690.0,378.0" fill="none" stroke="#b84d3a" stroke-width="3"/><text x="385.0" y="426" font-family="Arial" font-size="14" text-anchor="middle">Recall</text><text x="24" y="228.0" font-family="Arial" font-size="14" transform="rotate(-90 24 228.0)" text-anchor="middle">Precision</text></svg>