<svg xmlns="http://www.w3.org/2000/svg" width="760" height="460" viewBox="0 0 760 460"><rect width="100%" height="100%" fill="#fbfbf8"/><text x="32" y="42" font-family="Arial" font-size="22" font-weight="700" fill="#202124">Precision-Recall Curve</text><rect x="80" y="78" width="610" height="300" fill="#fff" stroke="#d7d7d7"/><polyline points="80.0,378.0 118.8,78.0 148.1,114.9 174.0,135.7 199.0,148.0 217.4,165.6 234.2,179.3 250.0,190.2 266.8,197.4 281.5,204.8 296.9,210.3 310.4,216.0 324.7,220.3 336.7,225.3 348.0,229.9 357.4,235.0 367.6,239.0 378.0,242.4 388.6,245.4 399.4,248.0 408.3,251.0 418.8,253.2 429.3,255.2 436.8,258.0 446.6,259.9 453.3,262.5 461.2,264.6 471.4,265.9 478.1,268.0 484.9,270.0 491.1,272.0 497.8,273.8 503.7,275.6 511.0,277.0 516.8,278.6 522.3,280.3 527.7,281.8 532.7,283.4 538.0,284.8 543.1,286.1 548.7,287.4 553.6,288.7 559.0,289.8 563.7,291.0 569.9,291.9 574.6,293.0 579.7,294.0 584.9,294.9 588.4,296.1 591.5,297.3 595.3,298.3 598.8,299.3 602.6,300.3 606.3,301.2 610.2,302.1 612.5,303.1 615.6,304.0 619.4,304.8 623.4,305.5 625.9,306.4 628.7,307.3 631.9,308.0 635.0,308.8 637.5,309.6 640.3,310.3 641.9,311.1 643.5,312.0 645.8,312.7 648.8,313.3 650.4,314.1 653.6,314.6 655.5,315.3 657.6,316.0 659.1,316.6 660.2,317.4 661.6,318.0 663.8,318.6 665.9,319.1 667.3,319.8 669.3,320.3 670.9,320.9 672.3,321.4 673.2,322.0 674.8,322.6 676.4,323.1 677.2,323.7 678.4,324.2 679.4,324.7 680.9,325.2 682.3,325.7 683.8,326.1 684.8,326.6 685.6,327.1 686.6,327.6 687.2,328.0 688.2,328.5 688.8,329.0 689.6,329.4 689.9,329.9 690.0,330.3 690.0,330.8" fill="none" stroke="#b84d3a" stroke-width="3"/><text x="385.0" y="426" font-family="Arial" font-size="14" text-anchor="middle">Recall</text><text x="24" y="228.0" font-family="Arial" font-size="14" transform="rotate(-90 24 228.0)" text-anchor="middle">Precision</text></svg>