<svg xmlns="http://www.w3.org/2000/svg" width="760" height="460" viewBox="0 0 760 460"><rect width="100%" height="100%" fill="#fbfbf8"/><text x="32" y="42" font-family="Arial" font-size="22" font-weight="700" fill="#202124">Precision-Recall Curve</text><rect x="80" y="78" width="610" height="300" fill="#fff" stroke="#d7d7d7"/><polyline points="80.0,78.0 108.3,281.1 130.5,294.2 149.8,303.0 169.0,307.5 187.2,311.1 204.2,314.3 220.4,317.1 237.5,318.7 250.3,322.1 263.2,324.7 278.9,325.7 291.1,327.9 302.5,329.9 313.1,332.0 326.5,332.9 337.3,334.5 348.5,335.7 359.3,336.9 367.5,338.6 377.0,339.8 387.1,340.8 396.6,341.8 404.7,343.0 413.9,343.9 421.5,345.0 428.8,346.1 436.3,347.1 445.0,347.7 452.2,348.6 458.9,349.5 466.4,350.2 473.9,350.9 480.4,351.7 486.5,352.5 491.1,353.4 497.5,354.0 504.0,354.6 509.5,355.3 514.8,356.0 521.2,356.5 526.5,357.1 531.0,357.8 536.3,358.3 542.4,358.8 546.8,359.4 552.6,359.8 556.9,360.4 561.9,360.8 565.5,361.4 568.8,362.0 574.0,362.4 577.6,362.9 581.8,363.3 587.9,363.6 591.8,364.0 595.4,364.5 598.3,364.9 603.2,365.3 606.6,365.7 610.5,366.0 613.3,366.5 616.9,366.8 621.2,367.1 624.0,367.5 627.0,367.9 630.4,368.2 634.0,368.5 635.9,368.9 638.1,369.3 640.8,369.7 644.6,369.9 647.4,370.2 649.8,370.6 651.8,370.9 654.2,371.2 656.3,371.5 657.7,371.9 659.8,372.2 661.4,372.5 663.1,372.8 664.4,373.1 666.9,373.4 668.7,373.7 669.9,374.0 672.5,374.2 674.2,374.5 675.5,374.8 677.3,375.0 678.6,375.3 680.5,375.5 681.4,375.8 683.4,376.0 684.3,376.3 685.5,376.5 686.3,376.8 687.3,377.0 688.2,377.3 688.9,377.5 689.4,377.8 690.0,378.0" fill="none" stroke="#b84d3a" stroke-width="3"/><text x="385.0" y="426" font-family="Arial" font-size="14" text-anchor="middle">Recall</text><text x="24" y="228.0" font-family="Arial" font-size="14" transform="rotate(-90 24 228.0)" text-anchor="middle">Precision</text></svg>