<svg xmlns="http://www.w3.org/2000/svg" width="760" height="460" viewBox="0 0 760 460"><rect width="100%" height="100%" fill="#fbfbf8"/><text x="32" y="42" font-family="Arial" font-size="22" font-weight="700" fill="#202124">ROC Curve - AUC 0.759</text><rect x="80" y="78" width="610" height="300" fill="#fff" stroke="#d7d7d7"/><polyline points="80.0,378.0 83.5,360.8 87.9,348.2 92.5,336.8 97.5,327.5 102.4,317.9 107.3,308.6 112.6,300.8 117.9,293.8 123.2,286.0 128.5,278.7 133.9,272.0 139.4,265.3 144.9,259.4 150.5,253.5 156.0,246.8 161.6,241.1 167.2,235.7 173.0,231.1 179.0,227.1 184.7,222.1 190.5,217.6 196.4,213.1 202.3,209.1 208.2,204.9 214.0,200.6 220.2,197.9 226.1,193.6 232.2,190.6 238.1,186.9 244.2,183.6 250.2,180.0 256.2,176.6 262.3,173.5 268.3,170.0 274.5,167.4 280.5,164.3 286.7,161.4 292.9,159.4 299.2,157.1 305.4,154.7 311.6,152.2 317.8,149.9 324.0,147.7 330.1,144.8 336.5,143.1 342.7,140.7 348.9,138.2 355.0,135.2 361.2,133.0 367.4,130.5 373.8,129.1 380.1,127.1 386.3,124.8 392.5,122.3 398.9,120.7 405.2,118.9 411.5,117.4 417.7,114.9 424.1,113.4 430.5,112.0 436.8,110.2 443.2,108.7 449.6,107.5 456.0,106.0 462.4,104.8 468.8,103.7 475.3,102.5 481.7,101.6 488.2,100.3 494.6,99.0 501.0,98.1 507.5,97.3 514.0,96.2 520.4,94.8 526.8,93.8 533.3,92.8 539.7,91.3 546.1,90.2 552.5,89.1 559.1,88.5 565.5,87.6 572.0,86.6 578.6,86.1 585.1,85.5 591.6,85.0 598.2,84.5 604.7,83.8 611.2,83.0 617.8,82.6 624.2,81.7 630.8,81.0 637.3,80.3 643.9,80.2 650.4,79.6 657.0,79.2 663.6,78.8 670.2,78.5 676.8,78.3 683.4,78.1 690.0,78.0" fill="none" stroke="#b84d3a" stroke-width="3"/><text x="385.0" y="426" font-family="Arial" font-size="14" text-anchor="middle">False Positive Rate</text><text x="24" y="228.0" font-family="Arial" font-size="14" transform="rotate(-90 24 228.0)" text-anchor="middle">True Positive Rate</text></svg>