<svg xmlns="http://www.w3.org/2000/svg" width="760" height="460" viewBox="0 0 760 460"><rect width="100%" height="100%" fill="#fbfbf8"/><text x="32" y="42" font-family="Arial" font-size="22" font-weight="700" fill="#202124">ROC Curve - AUC 0.847</text><rect x="80" y="78" width="610" height="300" fill="#fff" stroke="#d7d7d7"/><polyline points="80.0,378.0 81.4,359.4 83.4,340.8 86.2,324.9 91.0,316.9 93.8,301.0 97.2,287.7 100.0,271.8 103.4,258.5 107.5,247.9 111.7,237.3 117.2,232.0 122.7,226.7 128.2,221.4 133.7,216.1 138.5,208.1 144.0,202.8 150.2,200.1 156.4,197.5 162.6,194.8 168.8,192.2 175.0,189.5 180.5,184.2 185.3,176.2 190.8,170.9 196.4,165.6 203.2,165.6 209.4,163.0 215.6,160.3 221.1,155.0 226.6,149.7 232.8,147.0 239.7,147.0 245.2,141.7 250.7,136.4 256.3,131.1 262.4,128.4 269.3,128.4 275.5,125.8 282.4,125.8 288.6,123.1 295.5,123.1 301.0,117.8 307.2,115.2 313.4,112.5 319.6,109.9 326.5,109.9 332.0,104.5 338.2,101.9 345.1,101.9 351.3,99.2 358.1,99.2 365.0,99.2 371.9,99.2 378.8,99.2 385.7,99.2 392.6,99.2 399.5,99.2 406.3,99.2 413.2,99.2 418.7,93.9 425.6,93.9 432.5,93.9 438.0,88.6 444.9,88.6 451.1,86.0 458.0,86.0 464.9,86.0 471.7,86.0 478.6,86.0 485.5,86.0 492.4,86.0 499.3,86.0 506.2,86.0 513.1,86.0 519.3,83.3 526.1,83.3 533.0,83.3 539.9,83.3 546.8,83.3 553.7,83.3 560.6,83.3 567.4,83.3 574.3,83.3 581.2,83.3 588.1,83.3 595.0,83.3 601.9,83.3 608.1,80.7 615.0,80.7 621.8,80.7 628.7,80.7 634.9,78.0 641.8,78.0 648.7,78.0 655.6,78.0 662.5,78.0 669.3,78.0 676.2,78.0 683.1,78.0 690.0,78.0" fill="none" stroke="#b84d3a" stroke-width="3"/><text x="385.0" y="426" font-family="Arial" font-size="14" text-anchor="middle">False Positive Rate</text><text x="24" y="228.0" font-family="Arial" font-size="14" transform="rotate(-90 24 228.0)" text-anchor="middle">True Positive Rate</text></svg>