<svg xmlns="http://www.w3.org/2000/svg" width="760" height="460" viewBox="0 0 760 460"><rect width="100%" height="100%" fill="#fbfbf8"/><text x="32" y="42" font-family="Arial" font-size="22" font-weight="700" fill="#202124">ROC Curve - AUC 0.740</text><rect x="80" y="78" width="610" height="300" fill="#fff" stroke="#d7d7d7"/><polyline points="80.0,378.0 84.1,364.1 88.8,353.1 93.7,343.7 98.7,334.2 103.7,325.3 108.8,316.9 114.0,308.9 119.2,300.5 124.7,294.3 130.2,287.9 135.4,280.2 141.0,274.2 146.6,268.6 152.3,263.3 157.8,256.8 163.4,251.5 169.1,246.0 174.8,240.6 180.7,236.6 186.5,232.0 192.2,227.0 198.0,222.3 203.9,218.3 209.8,213.8 215.7,210.0 221.7,206.4 227.7,202.8 233.6,198.5 239.6,194.9 245.6,191.6 251.6,188.0 257.6,184.3 263.6,181.1 269.7,178.1 276.0,175.8 282.0,172.6 288.1,169.5 294.3,166.8 300.4,164.1 306.5,161.0 312.7,158.4 318.9,156.2 325.1,153.6 331.2,150.6 337.4,148.4 343.6,145.6 349.8,143.5 356.0,141.0 362.3,139.2 368.7,137.6 374.9,135.0 381.2,133.3 387.5,131.2 393.6,128.2 399.9,126.3 406.2,124.5 412.6,123.1 418.8,120.7 425.1,119.0 431.4,117.1 437.8,115.7 444.1,113.9 450.4,111.8 456.8,110.5 463.2,109.0 469.5,107.3 475.8,105.6 482.3,104.6 488.7,103.5 495.1,102.2 501.4,100.3 507.8,99.0 514.3,97.8 520.7,96.8 527.2,95.6 533.6,94.6 540.1,93.9 546.6,92.9 553.1,92.1 559.6,91.2 566.1,90.6 572.5,89.4 579.0,88.5 585.5,87.9 591.9,86.6 598.4,85.8 604.9,85.1 611.4,84.2 618.0,83.6 624.4,82.7 631.0,82.3 637.4,81.2 644.0,80.8 650.5,80.2 657.1,79.8 663.7,79.3 670.2,78.9 676.8,78.5 683.4,78.3 690.0,78.0" fill="none" stroke="#b84d3a" stroke-width="3"/><text x="385.0" y="426" font-family="Arial" font-size="14" text-anchor="middle">False Positive Rate</text><text x="24" y="228.0" font-family="Arial" font-size="14" transform="rotate(-90 24 228.0)" text-anchor="middle">True Positive Rate</text></svg>