<svg xmlns="http://www.w3.org/2000/svg" width="760" height="460" viewBox="0 0 760 460"><rect width="100%" height="100%" fill="#fbfbf8"/><text x="32" y="42" font-family="Arial" font-size="22" font-weight="700" fill="#202124">ROC Curve - AUC 0.776</text><rect x="80" y="78" width="610" height="300" fill="#fff" stroke="#d7d7d7"/><polyline points="80.0,378.0 83.2,358.9 87.2,344.5 91.6,331.8 96.0,319.5 101.0,310.4 106.2,302.2 111.4,294.4 116.6,286.1 121.9,278.9 127.2,271.3 132.6,264.7 138.0,257.7 143.6,251.7 149.2,246.2 155.0,241.6 160.7,236.5 166.5,231.4 172.2,226.2 177.8,220.9 183.7,216.5 189.4,211.4 195.1,206.2 201.1,202.5 206.9,197.7 212.9,194.4 218.9,190.5 224.6,185.5 230.6,182.2 236.7,178.9 242.8,175.8 248.8,172.5 254.9,169.6 260.9,166.0 267.1,163.2 273.2,160.5 279.4,157.8 285.6,155.4 291.7,152.7 297.9,150.2 304.1,147.5 310.3,145.1 316.4,142.4 322.7,140.1 328.7,137.1 335.0,134.8 341.2,132.3 347.3,129.7 353.7,128.0 360.0,126.5 366.4,124.6 372.7,122.9 379.0,121.0 385.3,119.1 391.6,117.2 398.0,116.1 404.4,114.6 410.7,112.7 417.0,110.8 423.4,109.5 429.8,108.1 436.2,106.6 442.5,105.1 448.9,103.8 455.3,102.4 461.8,101.7 468.3,100.9 474.8,99.7 481.1,98.2 487.6,97.5 494.0,95.9 500.5,94.9 506.9,93.9 513.4,93.2 520.0,92.7 526.5,92.0 532.9,90.9 539.4,89.9 545.9,89.1 552.4,88.2 558.9,87.4 565.4,86.7 571.9,86.3 578.4,85.5 584.9,84.7 591.5,84.3 598.0,83.7 604.6,83.2 611.1,82.5 617.6,81.8 624.1,81.1 630.7,80.6 637.3,80.2 643.8,79.7 650.4,79.4 656.9,78.9 663.5,78.6 670.1,78.2 676.7,78.1 683.3,78.0 690.0,78.0" fill="none" stroke="#b84d3a" stroke-width="3"/><text x="385.0" y="426" font-family="Arial" font-size="14" text-anchor="middle">False Positive Rate</text><text x="24" y="228.0" font-family="Arial" font-size="14" transform="rotate(-90 24 228.0)" text-anchor="middle">True Positive Rate</text></svg>